HIERARCHY
ROOT Hip
{
	OFFSET 0 1.131 0.0052
	CHANNELS 6 Xposition Yposition Zposition Xrotation Yrotation Zrotation
	JOINT Abdomen
	{
		OFFSET 0 -0.047353 -0.05
		CHANNELS 3 Xrotation Zrotation Yrotation
		JOINT Chest
		{
			OFFSET 0 0.132153 0.007439
			CHANNELS 3 Xrotation Zrotation Yrotation
			JOINT Neck
			{
				OFFSET 0 0.3078 0.006161
				CHANNELS 3 Xrotation Zrotation Yrotation
				JOINT Head_comp
				{
					OFFSET 0 0.0884 0.013
					CHANNELS 3 Xrotation Yrotation Zrotation
					End Site
					{
						OFFSET -0 0.156 0.0624
					}
				}
			}
			JOINT Left_Collar
			{
				OFFSET 0.02282 0.250342 0.017193
				CHANNELS 2 Yrotation Zrotation
				JOINT Left_Shoulder
				{
					OFFSET 0.15421 0 0
					CHANNELS 3 Xrotation Yrotation Zrotation
					JOINT Left_Forearm
					{
						OFFSET 0.265212 0 0
						CHANNELS 2 Yrotation Xrotation
						JOINT Left_Hand
						{
							OFFSET 0.27571 0 0
							CHANNELS 2 Zrotation Yrotation
							JOINT L1ProxPhalanx
							{
								OFFSET 0.014142 0.001733 0.014142
								CHANNELS 3 Yrotation Zrotation Xrotation
								JOINT L1MidPhalanx
								{
									OFFSET 0.04 0 0
									CHANNELS 1 Zrotation
									JOINT L1DistPhalanx
									{
										OFFSET 0.035 0 0
										CHANNELS 1 Zrotation
										End Site
										{
											OFFSET 0.029 -0 -0
										}
									}
								}
							}
							JOINT L2ProxPhalanx
							{
								OFFSET 0.0821037 0.001578 0.0219996
								CHANNELS 2 Yrotation Zrotation
								JOINT L2MidPhalanx
								{
									OFFSET 0.04 0 0
									CHANNELS 1 Zrotation
									JOINT L2DistPhalanx
									{
										OFFSET 0.028 0 0
										CHANNELS 1 Zrotation
										End Site
										{
											OFFSET 0.02 -0 -0
										}
									}
								}
							}
							JOINT L3ProxPhalanx
							{
								OFFSET 0.083 0 0
								CHANNELS 2 Yrotation Zrotation
								JOINT L3MidPhalanx
								{
									OFFSET 0.053 0 0
									CHANNELS 1 Zrotation
									JOINT L3DistPhalanx
									{
										OFFSET 0.03 0 0
										CHANNELS 1 Zrotation
										End Site
										{
											OFFSET 0.023 -0 -0
										}
									}
								}
							}
							JOINT L4ProxPhalanx
							{
								OFFSET 0.077274 -0.000761 -0.0207055
								CHANNELS 2 Yrotation Zrotation
								JOINT L4MidPhalanx
								{
									OFFSET 0.05 0 0
									CHANNELS 1 Zrotation
									JOINT L4DistPhalanx
									{
										OFFSET 0.03 0 0
										CHANNELS 1 Zrotation
										End Site
										{
											OFFSET 0.023 -0 -0
										}
									}
								}
							}
							JOINT L5ProxPhalanx
							{
								OFFSET 0.0675499 -0.001644 -0.039
								CHANNELS 2 Yrotation Zrotation
								JOINT L5MidPhalanx
								{
									OFFSET 0.04 0 0
									CHANNELS 1 Zrotation
									JOINT L5DistPhalanx
									{
										OFFSET 0.021 0 0
										CHANNELS 1 Zrotation
										End Site
										{
											OFFSET 0.022 -0 -0
										}
									}
								}
							}
						}
					}
				}
			}
			JOINT Right_Collar
			{
				OFFSET -0.02282 0.250342 0.017193
				CHANNELS 2 Yrotation Zrotation
				JOINT Right_Shoulder
				{
					OFFSET -0.15421 0 0
					CHANNELS 3 Xrotation Yrotation Zrotation
					JOINT Right_Forearm
					{
						OFFSET -0.265212 0 0
						CHANNELS 2 Yrotation Xrotation
						JOINT Right_Hand
						{
							OFFSET -0.27571 3e-006 0
							CHANNELS 2 Zrotation Yrotation
							JOINT R1ProxPhalanx
							{
								OFFSET -0.014142 0.001733 0.014142
								CHANNELS 3 Yrotation Zrotation Xrotation
								JOINT R1MidPhalanx
								{
									OFFSET -0.04 0 0
									CHANNELS 1 Zrotation
									JOINT R1DistPhalanx
									{
										OFFSET -0.035 0 0
										CHANNELS 1 Zrotation
										End Site
										{
											OFFSET -0.029 -0 -0
										}
									}
								}
							}
							JOINT R2ProxPhalanx
							{
								OFFSET -0.0821037 0.001578 0.0219996
								CHANNELS 2 Yrotation Zrotation
								JOINT R2MidPhalanx
								{
									OFFSET -0.04 0 0
									CHANNELS 1 Zrotation
									JOINT R2DistPhalanx
									{
										OFFSET -0.028 0 0
										CHANNELS 1 Zrotation
										End Site
										{
											OFFSET -0.02 -0 -0
										}
									}
								}
							}
							JOINT R3ProxPhalanx
							{
								OFFSET -0.083 0 0
								CHANNELS 2 Yrotation Zrotation
								JOINT R3MidPhalanx
								{
									OFFSET -0.053 0 0
									CHANNELS 1 Zrotation
									JOINT R3DistPhalanx
									{
										OFFSET -0.03 0 0
										CHANNELS 1 Zrotation
										End Site
										{
											OFFSET -0.023 -0 -0
										}
									}
								}
							}
							JOINT R4ProxPhalanx
							{
								OFFSET -0.077274 -0.000761 -0.0207055
								CHANNELS 2 Yrotation Zrotation
								JOINT R4MidPhalanx
								{
									OFFSET -0.05 0 0
									CHANNELS 1 Zrotation
									JOINT R4DistPhalanx
									{
										OFFSET -0.03 0 0
										CHANNELS 1 Zrotation
										End Site
										{
											OFFSET -0.023 -0 -0
										}
									}
								}
							}
							JOINT R5ProxPhalanx
							{
								OFFSET -0.0675499 -0.001644 -0.039
								CHANNELS 2 Yrotation Zrotation
								JOINT R5MidPhalanx
								{
									OFFSET -0.04 0 0
									CHANNELS 1 Zrotation
									JOINT R5DistPhalanx
									{
										OFFSET -0.021 0 0
										CHANNELS 1 Zrotation
										End Site
										{
											OFFSET -0.022 -0 -0
										}
									}
								}
							}
						}
					}
				}
			}
		}
	}
	JOINT Left_Thigh
	{
		OFFSET 0.1118 -0.1612 -0.0442
		CHANNELS 3 Xrotation Zrotation Yrotation
		JOINT Left_Shin
		{
			OFFSET 0 -0.477856 0
			CHANNELS 1 Xrotation
			JOINT Left_Foot
			{
				OFFSET 0 -0.431952 0
				CHANNELS 2 Xrotation Zrotation
				JOINT Left_Toe
				{
					OFFSET 0 -0.0442 0.119
					CHANNELS 1 Xrotation
					End Site
					{
						OFFSET -0 -0 0.07
					}
				}
			}
		}
	}
	JOINT Right_Thigh
	{
		OFFSET -0.1118 -0.1612 -0.0442
		CHANNELS 3 Xrotation Zrotation Yrotation
		JOINT Right_Shin
		{
			OFFSET 0 -0.477856 0
			CHANNELS 1 Xrotation
			JOINT Right_Foot
			{
				OFFSET 0 -0.431952 0
				CHANNELS 2 Xrotation Zrotation
				JOINT Right_Toe
				{
					OFFSET 0 -0.0442 0.119
					CHANNELS 1 Xrotation
					End Site
					{
						OFFSET -0 -0 0.07
					}
				}
			}
		}
	}
}
MOTION
Frames: 13
Frame Time: 0.009975
-0.101189 -0.0603074 0.0604774 6.62858e-013 1.2063e-007 -5.10825e-006 0 0 0 0 0 0 0 0 0 0 0 0 0 0 -0 0 -0 0 0 0 0 -37.9386 -28.008 73.698 -26.2405 -28.4472 -13.118 -18.2167 -29.0248 -19.6359 -0 -22.4358 -32.6146 -28.1246 8.63175 -30.7051 -32.2053 -23.7634 7.83088 -26.7354 -35.1526 -30.0193 0 0 -0 0 -0 0 0 0 0 37.9386 28.008 73.698 26.2405 28.4472 13.118 18.2167 29.0248 19.6359 0 22.4358 32.6146 28.1246 -8.63175 30.7051 32.2053 23.7634 -7.83088 26.7354 35.1526 30.0193 1.34136 -0.668246 -0.0156471 0.0240216 -1.36529 0.668434 0 1.35277 -0.668243 -0.0157801 2.41484e-006 -1.35268 0.668434 0 
-0.101189 -0.0603074 0.0604774 6.62858e-013 1.2063e-007 -5.10825e-006 0 0 0 0 0 0 0 0 0 0 0 0 0 0 -0 0 -0 0 0 0 0 -37.9386 -28.008 73.698 -26.2405 -28.4472 -13.118 -18.2167 -29.0248 -19.6359 -0 -22.4358 -32.6146 -28.1246 8.63175 -30.7051 -32.2053 -23.7634 7.83088 -26.7354 -35.1526 -30.0193 0 0 -0 0 -0 0 0 0 0 37.9386 28.008 73.698 26.2405 28.4472 13.118 18.2167 29.0248 19.6359 0 22.4358 32.6146 28.1246 -8.63175 30.7051 32.2053 23.7634 -7.83088 26.7354 35.1526 30.0193 1.34136 -0.668246 -0.0156471 0.0240216 -1.36529 0.668434 0 1.35277 -0.668243 -0.0157801 2.41484e-006 -1.35268 0.668434 0 
-0.10142 -0.0602949 0.0599915 -1.34707e-013 1.179e-007 -5.08274e-006 0 -0 0 0 -0 0 0 -0 0 -0.710292 0.291137 -9.06848e-006 0.0132623 -3.90878 29.1693 -13.0793 -70.0063 -80.1453 0.010604 0.0241375 0.00146406 -38.0242 -27.9889 73.7272 -26.2843 -28.4049 -13.0576 -18.2754 -29.0797 -19.6127 0 -22.4836 -32.6516 -28.0739 8.5961 -30.7115 -32.2443 -23.7346 7.82173 -26.7217 -35.1468 -29.9692 -0.0132623 3.90878 29.1693 13.0793 70.0063 80.1453 0.010604 -0.0241375 -0.00146406 38.0242 27.9889 73.7272 26.2843 28.4049 13.0576 18.2754 29.0797 19.6127 0 22.4836 32.6516 28.0739 -8.5961 30.7115 32.2443 23.7346 -7.82173 26.7217 35.1468 29.9692 1.31081 -0.653695 -0.0149952 0.0239015 -1.33463 0.653872 0 1.32216 -0.653692 -0.015125 2.40276e-006 -1.32207 0.653872 0 
-0.10135 -0.0603083 0.060591 -1.35358e-013 1.18493e-007 -5.10828e-006 0 -0 0 0 -0 0 0 -0 0 -0.714192 0.291466 2.47373e-011 0.0133289 -3.92842 30.5965 -11.2222 -67.3831 -82.7205 0.0106483 0.0242587 0.00147142 -37.9386 -28.008 73.698 -26.2405 -28.4472 -13.118 -18.2167 -29.0248 -19.6359 0 -22.4358 -32.6146 -28.1246 8.63175 -30.7051 -32.2053 -23.7634 7.83088 -26.7354 -35.1526 -30.0193 -0.0133289 3.92842 30.5965 11.2222 67.3831 82.7205 0.0106483 -0.0242587 -0.00147142 37.9386 28.008 73.698 26.2405 28.4472 13.118 18.2167 29.0248 19.6359 0 22.4358 32.6146 28.1246 -8.63175 30.7051 32.2053 23.7634 -7.83088 26.7354 35.1526 30.0193 1.34852 -0.658096 -0.0154917 0.0240216 -1.37245 0.658284 0 1.35993 -0.658093 -0.0156227 2.41484e-006 -1.35984 0.658284 0 
-0.10135 -0.0603093 0.0606341 4.02935e-014 1.21288e-007 -5.10822e-006 0 -0 0 0 -0 0 0 -0 0 -0.714228 0.291453 1.06044e-014 0.0133289 -3.92842 30.6057 -11.2077 -67.3643 -82.7369 0.0106483 0.0242587 0.00147142 -37.9386 -28.008 73.698 -26.2405 -28.4472 -13.118 -18.2167 -29.0248 -19.6359 0 -22.4358 -32.6146 -28.1246 8.63175 -30.7051 -32.2053 -23.7634 7.83088 -26.7354 -35.1526 -30.0193 -0.0133289 3.92842 30.6057 11.2077 67.3643 82.7369 0.0106483 -0.0242587 -0.00147142 37.9386 28.008 73.698 26.2405 28.4472 13.118 18.2167 29.0248 19.6359 0 22.4358 32.6146 28.1246 -8.63175 30.7051 32.2053 23.7634 -7.83088 26.7354 35.1526 30.0193 1.35123 -0.658118 -0.0155233 0.0240216 -1.37517 0.658306 0 1.36264 -0.658114 -0.0156544 1.70755e-006 -1.36255 0.658306 0 
-0.10135 -0.0603093 0.0606348 2.79441e-013 1.21511e-007 -5.10822e-006 0 -0 0 0 -0 0 0 -0 0 -0.714228 0.291453 -0 0.0133289 -3.92842 30.6057 -11.2077 -67.3643 -82.7369 0.0106483 0.0242587 0.00147142 -37.9386 -28.008 73.698 -26.2405 -28.4472 -13.118 -18.2167 -29.0248 -19.6359 0 -22.4358 -32.6146 -28.1246 8.63175 -30.7051 -32.2053 -23.7634 7.83088 -26.7354 -35.1526 -30.0193 -0.0133289 3.92842 30.6057 11.2077 67.3643 82.7369 0.0106483 -0.0242587 -0.00147142 37.9386 28.008 73.698 26.2405 28.4472 13.118 18.2167 29.0248 19.6359 0 22.4358 32.6146 28.1246 -8.63175 30.7051 32.2053 23.7634 -7.83088 26.7354 35.1526 30.0193 1.35128 -0.658118 -0.0155239 0.0240216 -1.37521 0.658306 0 1.36268 -0.658115 -0.0156549 2.41484e-006 -1.3626 0.658306 0 
-0.10135 -0.0603093 0.0606348 -2.03589e-013 1.21513e-007 -5.10822e-006 0 -0 0 0 -0 0 0 -0 0 -0.714229 0.291453 7.76513e-019 0.0133289 -3.92842 30.6057 -11.2077 -67.3643 -82.7369 0.0106483 0.0242587 0.00147142 -37.9386 -28.008 73.698 -26.2405 -28.4472 -13.118 -18.2167 -29.0248 -19.6359 0 -22.4358 -32.6146 -28.1246 8.63175 -30.7051 -32.2053 -23.7634 7.83088 -26.7354 -35.1526 -30.0193 -0.0133289 3.92842 30.6057 11.2077 67.3643 82.7369 0.0106483 -0.0242587 -0.00147142 37.9386 28.008 73.698 26.2405 28.4472 13.118 18.2167 29.0248 19.6359 0 22.4358 32.6146 28.1246 -8.63175 30.7051 32.2053 23.7634 -7.83088 26.7354 35.1526 30.0193 1.35128 -0.658118 -0.0155239 0.0240216 -1.37521 0.658306 0 1.36268 -0.658115 -0.0156549 4.24747e-008 -1.3626 0.658306 0 
-0.10135 -0.0603093 0.0606348 -1.52674e-013 1.21513e-007 -5.10822e-006 0 -0 0 0 -0 0 0 -0 0 -0.714229 0.291453 3.88256e-019 0.0133289 -3.92842 30.6057 -11.2077 -67.3643 -82.7369 0.0106483 0.0242587 0.00147142 -37.9386 -28.008 73.698 -26.2405 -28.4472 -13.118 -18.2167 -29.0248 -19.6359 0 -22.4358 -32.6146 -28.1246 8.63175 -30.7051 -32.2053 -23.7634 7.83088 -26.7354 -35.1526 -30.0193 -0.0133289 3.92842 30.6057 11.2077 67.3643 82.7369 0.0106483 -0.0242587 -0.00147142 37.9386 28.008 73.698 26.2405 28.4472 13.118 18.2167 29.0248 19.6359 0 22.4358 32.6146 28.1246 -8.63175 30.7051 32.2053 23.7634 -7.83088 26.7354 35.1526 30.0193 1.35128 -0.658118 -0.0155239 0.0240216 -1.37521 0.658306 0 1.36269 -0.658115 -0.0156549 2.37258e-006 -1.3626 0.658306 0 
-0.10135 -0.0603093 0.0606348 -1.51623e-013 1.21513e-007 -5.10822e-006 0 -0 0 0 -0 0 0 -0 0 -0.714229 0.291453 -0 0.0133289 -3.92842 30.6057 -11.2077 -67.3643 -82.7369 0.0106483 0.0242587 0.00147142 -37.9386 -28.008 73.698 -26.2405 -28.4472 -13.118 -18.2167 -29.0248 -19.6359 0 -22.4358 -32.6146 -28.1246 8.63175 -30.7051 -32.2053 -23.7634 7.83088 -26.7354 -35.1526 -30.0193 -0.0133289 3.92842 30.6057 11.2077 67.3643 82.7369 0.0106483 -0.0242587 -0.00147142 37.9386 28.008 73.698 26.2405 28.4472 13.118 18.2167 29.0248 19.6359 0 22.4358 32.6146 28.1246 -8.63175 30.7051 32.2053 23.7634 -7.83088 26.7354 35.1526 30.0193 1.35128 -0.658118 -0.0155239 0.0240216 -1.37521 0.658306 0 1.36269 -0.658115 -0.0156549 4.82967e-008 -1.3626 0.658306 0 
-0.10135 -0.0603093 0.0606348 3.85891e-013 1.21513e-007 -5.10822e-006 0 -0 0 0 -0 0 0 -0 0 -0.714229 0.291453 -3.88256e-019 0.0133289 -3.92842 30.6057 -11.2077 -67.3643 -82.7369 0.0106483 0.0242587 0.00147142 -37.9386 -28.008 73.698 -26.2405 -28.4472 -13.118 -18.2167 -29.0248 -19.6359 0 -22.4358 -32.6146 -28.1246 8.63175 -30.7051 -32.2053 -23.7634 7.83088 -26.7354 -35.1526 -30.0193 -0.0133289 3.92842 30.6057 11.2077 67.3643 82.7369 0.0106483 -0.0242587 -0.00147142 37.9386 28.008 73.698 26.2405 28.4472 13.118 18.2167 29.0248 19.6359 0 22.4358 32.6146 28.1246 -8.63175 30.7051 32.2053 23.7634 -7.83088 26.7354 35.1526 30.0193 1.35128 -0.658118 -0.0155239 0.0240216 -1.37521 0.658306 0 1.36269 -0.658115 -0.0156549 2.3605e-006 -1.3626 0.658306 0 
-0.10135 -0.0603093 0.0606348 1.40292e-013 1.21513e-007 -5.10822e-006 0 -0 0 0 -0 0 0 -0 0 -0.714229 0.291453 -3.88256e-019 0.0133289 -3.92842 30.6057 -11.2077 -67.3643 -82.7369 0.0106483 0.0242587 0.00147142 -37.9386 -28.008 73.698 -26.2405 -28.4472 -13.118 -18.2167 -29.0248 -19.6359 0 -22.4358 -32.6146 -28.1246 8.63175 -30.7051 -32.2053 -23.7634 7.83088 -26.7354 -35.1526 -30.0193 -0.0133289 3.92842 30.6057 11.2077 67.3643 82.7369 0.0106483 -0.0242587 -0.00147142 37.9386 28.008 73.698 26.2405 28.4472 13.118 18.2167 29.0248 19.6359 0 22.4358 32.6146 28.1246 -8.63175 30.7051 32.2053 23.7634 -7.83088 26.7354 35.1526 30.0193 1.35128 -0.658118 -0.0155239 0.0240216 -1.37521 0.658306 0 1.36269 -0.658115 -0.0156549 2.41484e-006 -1.3626 0.658306 0 
-0.10135 -0.0603093 0.0606348 -5.70761e-013 1.21513e-007 -5.10822e-006 0 -0 0 0 -0 0 0 -0 0 -0.714229 0.291453 -0 0.0133289 -3.92842 30.6057 -11.2077 -67.3643 -82.7369 0.0106483 0.0242587 0.00147142 -37.9386 -28.008 73.698 -26.2405 -28.4472 -13.118 -18.2167 -29.0248 -19.6359 0 -22.4358 -32.6146 -28.1246 8.63175 -30.7051 -32.2053 -23.7634 7.83088 -26.7354 -35.1526 -30.0193 -0.0133289 3.92842 30.6057 11.2077 67.3643 82.7369 0.0106483 -0.0242587 -0.00147142 37.9386 28.008 73.698 26.2405 28.4472 13.118 18.2167 29.0248 19.6359 0 22.4358 32.6146 28.1246 -8.63175 30.7051 32.2053 23.7634 -7.83088 26.7354 35.1526 30.0193 1.35128 -0.658118 -0.0155239 0.0240216 -1.37521 0.658306 0 1.36269 -0.658115 -0.0156549 2.41484e-006 -1.3626 0.658306 0 
-0.10135 -0.0603093 0.0606348 5.22754e-013 1.21513e-007 -5.10822e-006 0 -0 0 0 -0 0 0 -0 0 -0.714229 0.291453 -7.76513e-019 0.0133289 -3.92842 30.6057 -11.2077 -67.3643 -82.7369 0.0106483 0.0242587 0.00147142 -37.9386 -28.008 73.698 -26.2405 -28.4472 -13.118 -18.2167 -29.0248 -19.6359 0 -22.4358 -32.6146 -28.1246 8.63175 -30.7051 -32.2053 -23.7634 7.83088 -26.7354 -35.1526 -30.0193 -0.0133289 3.92842 30.6057 11.2077 67.3643 82.7369 0.0106483 -0.0242587 -0.00147142 37.9386 28.008 73.698 26.2405 28.4472 13.118 18.2167 29.0248 19.6359 0 22.4358 32.6146 28.1246 -8.63175 30.7051 32.2053 23.7634 -7.83088 26.7354 35.1526 30.0193 1.35128 -0.658118 -0.0155239 0.0240216 -1.37521 0.658306 0 1.36268 -0.658115 -0.0156549 2.83165e-006 -1.3626 0.658306 0 
